<?xml version="1.0" standalone="no"?>
<!DOCTYPE svg PUBLIC "-//W3C//DTD SVG 20010904//EN"
 "http://www.w3.org/TR/2001/REC-SVG-20010904/DTD/svg10.dtd">
<svg version="1.0" xmlns="http://www.w3.org/2000/svg"
 width="218.000000pt" height="185.000000pt" viewBox="0 0 218.000000 185.000000"
 preserveAspectRatio="xMidYMid meet">
<g transform="translate(0.000000,185.000000) scale(0.100000,-0.100000)"
fill="#000000" stroke="none">
<path d="M920 1735 c-99 -22 -205 -80 -285 -157 -176 -167 -237 -386 -174
-622 l11 -39 16 25 c9 13 43 56 76 95 50 61 59 77 62 119 22 280 291 466 557
384 65 -20 175 -91 196 -127 10 -17 12 -17 29 6 l19 24 124 -151 c68 -83 125
-149 126 -148 6 6 -20 145 -37 193 -61 175 -219 326 -400 384 -85 27 -232 34
-320 14z m267 -26 c18 -6 38 -7 44 -3 8 4 9 3 5 -4 -7 -11 18 -17 53 -13 8 2
10 -2 5 -10 -4 -8 -3 -10 5 -5 7 5 19 0 29 -11 9 -10 23 -19 30 -21 29 -6 123
-86 162 -138 22 -30 38 -54 35 -54 -3 0 4 -9 15 -20 11 -11 25 -40 32 -64 6
-25 16 -42 21 -39 5 3 6 -4 2 -17 -5 -15 -4 -20 4 -16 6 4 10 -4 9 -21 0 -15
3 -39 7 -53 4 -17 -2 -11 -19 16 -14 23 -32 44 -40 47 -9 4 -13 16 -12 31 3
22 1 24 -12 14 -13 -11 -14 -9 -7 12 7 21 6 23 -7 13 -17 -14 -29 -8 -22 12 3
7 -4 15 -17 18 -16 4 -20 11 -16 27 5 18 3 19 -11 8 -13 -11 -15 -11 -10 4 4
10 1 19 -8 22 -10 4 -13 1 -9 -7 4 -6 -1 -3 -10 8 -16 19 -17 19 -30 1 -13
-17 -14 -17 -35 2 -11 10 -22 29 -25 41 -7 40 -21 47 -52 28 -7 -5 -13 -4 -13
1 0 6 -7 13 -16 16 -10 4 -13 2 -8 -6 4 -7 -6 -3 -22 9 -16 11 -55 26 -86 33
-32 7 -55 16 -53 20 2 4 -21 3 -53 -2 -31 -5 -67 -7 -80 -5 -12 2 -25 0 -29
-6 -4 -6 -1 -7 7 -2 9 5 11 4 6 -4 -4 -6 -16 -9 -27 -6 -10 4 -19 2 -19 -3 0
-6 -12 -13 -27 -17 -26 -6 -115 -63 -121 -77 -2 -4 -9 -5 -17 -2 -8 3 -18 -4
-25 -18 -11 -22 -10 -22 4 -4 9 11 16 16 16 12 0 -4 -19 -31 -43 -59 -45 -54
-72 -103 -68 -124 1 -7 -4 -23 -10 -35 -7 -13 -12 -38 -10 -57 1 -24 -4 -38
-18 -48 -12 -8 -18 -20 -14 -29 6 -17 -35 -67 -48 -58 -5 3 -6 -1 -4 -8 3 -8
-6 -25 -19 -37 -24 -23 -26 -23 -33 -5 -4 10 -7 78 -7 150 1 126 3 132 35 200
19 38 32 75 31 82 -2 7 4 15 12 18 9 3 13 11 9 18 -4 6 2 4 12 -4 13 -11 17
-11 11 -2 -11 18 14 64 30 58 9 -3 11 1 7 11 -5 13 -2 15 11 10 10 -4 15 -3
11 3 -8 13 20 41 37 37 7 -2 9 -2 5 1 -10 5 12 32 27 32 6 0 4 -5 -4 -10 -8
-5 -10 -10 -5 -10 14 0 45 37 37 45 -4 3 1 3 11 -1 10 -4 17 -1 17 6 0 7 7 10
16 6 8 -3 13 -2 10 2 -8 14 50 42 98 48 25 3 58 11 73 19 30 16 172 12 230 -6z
m147 -201 c-3 -4 -1 -8 4 -8 5 0 9 -7 9 -15 0 -20 -2 -19 -20 8 -12 19 -13 24
-2 24 8 0 12 -4 9 -9z m-737 -393 c0 -8 -4 -12 -9 -9 -5 3 -6 10 -3 15 9 13
12 11 12 -6z"/>
<path d="M998 1713 c7 -3 16 -2 19 1 4 3 -2 6 -13 5 -11 0 -14 -3 -6 -6z"/>
<path d="M1150 1590 c-18 -12 -2 -12 25 0 13 6 15 9 5 9 -8 0 -22 -4 -30 -9z"/>
<path d="M585 1489 c-11 -17 1 -21 15 -4 8 9 8 15 2 15 -6 0 -14 -5 -17 -11z"/>
<path d="M682 1418 c-7 -7 -12 -16 -12 -21 0 -5 7 -1 16 8 9 9 14 18 12 20 -2
3 -10 -1 -16 -7z"/>
<path d="M1575 1371 c-3 -5 -2 -12 3 -15 5 -3 9 1 9 9 0 17 -3 19 -12 6z"/>
<path d="M1586 1302 c-3 -5 1 -9 9 -9 8 0 12 4 9 9 -3 4 -7 8 -9 8 -2 0 -6 -4
-9 -8z"/>
<path d="M1050 1337 c-105 -136 -151 -192 -158 -194 -4 -1 -22 20 -41 47 -18
27 -36 48 -40 46 -9 -6 -6 -85 3 -115 6 -15 2 -34 -10 -56 -18 -33 -18 -34 10
-76 24 -35 26 -45 16 -63 -16 -30 -39 -60 -42 -55 -2 2 -12 18 -24 34 -37 53
-55 96 -59 137 -2 22 -1 38 2 34 7 -6 43 37 43 52 0 6 5 14 12 18 7 5 8 3 3
-6 -5 -9 -4 -11 4 -6 6 4 9 11 6 16 -3 4 2 13 10 20 17 14 21 45 5 35 -6 -3
-35 -38 -66 -76 l-55 -70 16 -49 c48 -143 189 -249 344 -258 42 -2 93 0 113 5
l38 8 -66 82 c-58 73 -71 103 -45 103 7 0 74 -83 137 -169 8 -10 97 54 133 95
22 25 45 43 51 39 5 -3 10 -2 10 3 0 23 -33 20 -58 -5 -15 -15 -30 -27 -33
-26 -4 1 -15 -8 -25 -20 l-19 -22 25 19 c14 11 11 6 -8 -13 -17 -18 -37 -29
-42 -26 -6 3 -10 1 -10 -4 0 -15 -13 -14 -36 5 -10 8 -13 13 -6 9 20 -10 14 2
-16 32 -29 29 -58 73 -54 84 1 4 -7 5 -17 2 -10 -3 -22 0 -26 6 -3 6 -2 10 2
9 5 -2 31 24 58 57 27 33 55 66 62 73 16 16 16 22 2 42 -9 13 -9 13 -7 -1 4
-23 -116 -168 -129 -156 -4 4 -1 13 5 19 7 7 12 17 12 22 0 6 -5 4 -10 -4 -9
-13 -10 -13 -10 0 0 8 12 26 25 39 14 13 25 28 25 33 0 6 7 8 14 5 10 -4 13
-1 9 9 -3 7 -1 14 5 14 18 0 6 50 -18 75 -13 14 -19 29 -15 36 5 8 4 10 -3 5
-17 -11 -15 9 3 24 8 7 15 18 15 25 0 7 12 11 27 10 19 -1 31 -10 45 -35 10
-19 18 -31 18 -27 0 4 6 2 14 -5 8 -7 12 -16 10 -20 -2 -3 2 -8 8 -11 9 -3 5
-12 -11 -31 -14 -14 -22 -29 -18 -32 3 -4 18 8 32 25 15 17 35 31 46 31 10 0
19 5 19 10 0 13 15 32 54 68 15 15 36 42 45 61 l18 34 6 -53 c6 -49 4 -55 -28
-92 l-34 -40 45 -75 c24 -41 44 -79 44 -84 0 -24 -66 -136 -104 -178 -24 -25
-41 -53 -39 -61 3 -10 2 -11 -4 -3 -6 9 -25 4 -73 -19 -90 -44 -188 -56 -272
-36 -170 42 -262 129 -334 316 -8 20 -14 16 -76 -62 -38 -46 -68 -90 -68 -97
0 -8 23 -55 50 -105 48 -89 109 -175 348 -490 61 -82 124 -172 139 -200 l27
-51 51 81 c56 90 118 177 178 249 35 42 38 50 26 63 -13 12 -15 11 -16 -7 -1
-12 -7 -27 -14 -33 -9 -8 -10 -8 -5 1 5 9 2 11 -9 7 -13 -5 -13 -9 -3 -22 11
-13 10 -15 -4 -9 -13 4 -15 2 -11 -10 4 -10 2 -14 -5 -9 -6 3 -13 2 -17 -4 -4
-6 -10 -8 -14 -6 -3 3 -7 -4 -7 -14 0 -10 5 -16 11 -13 5 4 -2 -5 -17 -20 -16
-14 -28 -31 -28 -37 0 -6 -8 -10 -17 -8 -14 2 -17 -3 -15 -21 3 -16 0 -21 -9
-16 -8 5 -10 4 -5 -3 4 -7 1 -21 -7 -33 -11 -15 -16 -17 -21 -7 -3 7 -5 4 -4
-7 2 -20 -27 -85 -38 -85 -3 0 -3 4 0 9 3 5 -4 20 -15 35 -11 14 -18 30 -15
35 3 5 -9 20 -28 34 -18 15 -37 38 -40 52 -4 14 -10 24 -14 21 -4 -2 -15 7
-25 20 -13 17 -14 24 -5 24 7 0 0 12 -15 26 -18 17 -26 32 -22 43 5 12 3 13
-6 4 -9 -9 -27 9 -80 77 -38 49 -69 94 -69 100 0 5 -5 10 -12 10 -6 0 -9 3 -5
6 8 9 -25 44 -36 37 -5 -3 -4 4 2 15 10 18 9 20 -9 17 -11 -2 -18 0 -15 5 3 4
-18 42 -45 83 -28 42 -50 79 -49 84 3 20 -2 34 -11 28 -5 -3 -10 1 -10 9 0 9
-4 16 -10 16 -5 0 -10 7 -10 16 0 9 5 12 13 8 6 -4 9 -4 5 1 -11 11 11 47 24
39 6 -4 9 -3 6 2 -3 5 12 29 34 54 21 25 38 41 37 35 -1 -5 -1 -12 1 -15 1 -3
3 -16 6 -29 5 -30 36 -81 63 -105 11 -10 18 -22 16 -27 -3 -4 -1 -10 5 -14 6
-4 7 -12 3 -18 -4 -8 -1 -7 9 1 10 8 19 9 22 3 3 -5 3 -11 -1 -14 -5 -2 -2 -2
4 -1 7 2 20 -7 29 -21 10 -15 21 -22 31 -18 10 4 14 2 10 -4 -7 -12 23 -25
113 -50 61 -16 181 -18 209 -3 10 5 21 6 25 3 3 -4 24 3 45 15 21 12 41 18 45
14 4 -4 6 0 4 8 -2 11 6 15 29 14 17 0 30 3 27 7 -2 4 0 10 6 14 6 4 8 9 6 13
-2 4 2 15 9 25 12 16 14 15 30 -9 15 -24 21 -26 62 -20 25 3 65 15 90 26 26
11 48 18 51 16 8 -8 -25 -46 -33 -38 -5 4 -5 2 -2 -4 3 -6 -4 -26 -15 -45 -12
-19 -23 -40 -24 -47 -1 -8 -6 -17 -10 -20 -4 -4 -4 1 -1 11 4 11 3 16 -4 12
-6 -4 -8 -13 -5 -21 5 -14 -9 -29 -17 -17 -2 5 -2 3 -1 -4 2 -6 -4 -17 -12
-24 -8 -6 -13 -14 -10 -16 2 -2 -7 -16 -20 -30 -13 -14 -21 -30 -17 -36 3 -6
1 -7 -5 -3 -10 6 -66 -66 -67 -86 0 -3 -4 -10 -9 -15 -5 -4 -6 -3 -3 3 4 6 -3
20 -16 30 -22 19 -22 19 -6 -1 9 -11 14 -25 12 -32 -2 -6 0 -14 6 -17 5 -4 36
29 69 71 167 221 253 385 281 537 l9 49 -61 76 c-34 42 -91 111 -126 153 l-64
78 -47 -63 c-27 -34 -61 -77 -77 -95 l-28 -34 -70 87 c-39 48 -77 95 -85 105
-14 16 -19 13 -70 -53z m55 -6 c-1 -19 2 -28 9 -24 11 7 -8 -20 -31 -45 -18
-19 -17 -24 21 -72 l34 -43 -31 -43 c-18 -24 -37 -42 -43 -39 -15 5 -24 -39
-16 -83 3 -22 1 -33 -5 -31 -13 5 -143 169 -143 180 0 4 5 11 12 15 7 5 9 2 4
-7 -4 -8 6 2 23 21 17 19 33 43 37 53 4 13 9 15 18 7 10 -8 13 -4 11 15 -2 14
0 23 3 21 4 -2 25 14 47 35 22 21 37 39 33 39 -4 0 -19 -12 -34 -27 l-27 -28
24 34 c13 18 28 39 34 46 14 20 22 10 20 -24z m39 -23 c-4 -6 -10 -5 -15 3
-14 22 -10 33 6 19 8 -7 12 -17 9 -22z m381 -69 c18 -20 21 -29 12 -38 -9 -10
-9 -12 2 -9 7 2 16 -3 19 -11 3 -9 0 -11 -8 -6 -8 5 -11 4 -6 -3 4 -6 13 -9
21 -5 8 3 15 0 15 -7 0 -6 5 -8 10 -5 6 4 10 3 9 -2 -4 -21 2 -34 13 -27 6 4
8 3 5 -3 -4 -6 1 -19 9 -29 9 -10 12 -12 8 -4 -5 12 -4 12 6 3 14 -13 4 -37
-12 -27 -7 4 -8 2 -4 -5 4 -6 12 -9 17 -6 5 4 9 1 9 -4 0 -6 -4 -11 -8 -11 -4
0 -7 -16 -7 -36 1 -20 -4 -42 -12 -49 -7 -8 -10 -21 -6 -31 4 -11 2 -15 -4
-11 -6 4 -13 -6 -17 -23 -3 -18 -12 -30 -21 -30 -8 0 -15 -4 -15 -10 0 -5 -10
-14 -21 -21 -13 -7 -19 -7 -15 -1 3 6 -6 5 -21 -3 -16 -7 -44 -16 -63 -19 -28
-4 -38 -1 -48 14 -7 11 -8 20 -3 20 5 0 27 35 47 78 42 86 45 123 15 173 -11
18 -18 36 -15 41 3 5 0 7 -7 6 -6 -2 -14 3 -17 11 -3 8 0 11 7 7 7 -5 9 -1 4
9 -4 13 -8 14 -14 4 -4 -8 -11 -11 -14 -7 -4 4 3 20 16 37 16 22 26 28 35 20
9 -8 11 -5 7 10 -3 13 -1 21 6 21 7 0 10 4 7 8 -3 5 -7 22 -10 38 l-5 29 25
-30 c13 -16 35 -42 49 -56z m-674 -86 c12 -15 12 -16 -1 -8 -8 4 4 -9 28 -30
26 -23 41 -43 38 -52 -3 -8 -2 -11 3 -8 6 3 24 -16 42 -41 18 -26 39 -54 48
-63 39 -39 67 -101 39 -85 -8 4 -9 3 -5 -2 5 -5 15 -9 24 -9 9 0 21 -9 27 -20
6 -11 18 -25 26 -31 8 -7 11 -16 7 -20 -11 -11 -141 -9 -158 2 -8 5 -22 7 -33
5 -12 -2 -16 1 -10 10 5 8 2 11 -8 7 -8 -4 -35 6 -61 21 -37 22 -44 29 -36 44
6 9 7 17 4 17 -4 0 1 7 9 16 9 8 20 12 26 9 5 -3 10 3 10 14 0 11 -5 23 -10
26 -6 4 -7 11 -4 17 4 7 2 8 -4 4 -18 -11 -34 30 -22 57 10 20 10 20 -3 5 -23
-28 -27 -9 -6 25 23 39 24 55 2 80 -10 11 -12 17 -5 13 6 -4 12 -2 12 3 0 15
5 14 21 -6z"/>
<path d="M1470 1281 c5 -11 15 -23 21 -27 6 -3 3 5 -6 20 -20 30 -30 35 -15 7z"/>
<path d="M1485 1220 c-3 -6 1 -7 9 -4 18 7 21 14 7 14 -6 0 -13 -4 -16 -10z"/>
<path d="M1616 1017 c3 -10 9 -15 12 -12 3 3 0 11 -7 18 -10 9 -11 8 -5 -6z"/>
<path d="M1405 840 c-3 -5 -5 -10 -3 -11 33 -8 38 -7 27 7 -14 17 -16 17 -24
4z"/>
<path d="M856 1017 c3 -10 9 -15 12 -12 3 3 0 11 -7 18 -10 9 -11 8 -5 -6z"/>
<path d="M842 878 c-15 -15 -15 -25 1 -31 8 -3 13 4 13 19 0 13 0 24 -1 24 -1
0 -6 -5 -13 -12z"/>
<path d="M1066 824 c-5 -14 -4 -15 9 -4 17 14 19 20 6 20 -5 0 -12 -7 -15 -16z"/>
<path d="M410 1355 c0 -5 5 -17 10 -25 5 -8 10 -10 10 -5 0 6 -5 17 -10 25 -5
8 -10 11 -10 5z"/>
<path d="M853 1283 c4 -3 1 -13 -6 -22 -11 -14 -10 -14 5 -2 16 12 16 31 1 31
-4 0 -3 -3 0 -7z"/>
<path d="M1210 1201 c0 -6 4 -13 10 -16 6 -3 7 1 4 9 -7 18 -14 21 -14 7z"/>
<path d="M613 985 c0 -8 4 -12 9 -9 5 3 6 10 3 15 -9 13 -12 11 -12 -6z"/>
<path d="M540 901 c0 -6 4 -13 10 -16 6 -3 7 1 4 9 -7 18 -14 21 -14 7z"/>
<path d="M480 781 c0 -6 4 -13 10 -16 6 -3 7 1 4 9 -7 18 -14 21 -14 7z"/>
<path d="M696 637 c3 -10 9 -15 12 -12 3 3 0 11 -7 18 -10 9 -11 8 -5 -6z"/>
<path d="M770 551 c0 -6 4 -13 10 -16 6 -3 7 1 4 9 -7 18 -14 21 -14 7z"/>
<path d="M1216 393 c-4 -9 -2 -21 4 -27 8 -8 9 -6 4 8 -5 13 -4 17 4 12 8 -5
10 -2 6 8 -8 20 -10 20 -18 -1z"/>
<path d="M1056 132 c-3 -5 1 -9 9 -9 8 0 15 4 15 9 0 4 -4 8 -9 8 -6 0 -12 -4
-15 -8z"/>
</g>
</svg>
